# xmcd CD database file
#
# Track frame offsets:
#	150
#	48523
#	91040
#	117485
#	130518
#	152540
#	176215
#	201690
#	237730
#	261305
#	283878
#	305985
#
# Disc length: 4441 seconds
#
# Revision: 0
# Processed by: cddbd v1.5.2PL0 Copyright (c) Steve Scherf et al.
# Submitted via: CDex 1.70beta2
#
DISCID=bb11570c
DTITLE=Ben Harper - Live from Mars 1
DYEAR=1900
DGENRE=Blues
TTITLE0=Glory and consequence
TTITLE1=Excuse me Mr
TTITLE2=Alone
TTITLE3=Sexual healing
TTITLE4=Woman in you
TTITLE5=Ground on down
TTITLE6=Steal my kisses
TTITLE7=Burn one down
TTITLE8=Mama's got a girlfriend
TTITLE9=Welcome to the cruel world
TTITLE10=Forgiven
TTITLE11=Faded - whole lotta love
EXTD=
EXTT0=
EXTT1=
EXTT2=
EXTT3=
EXTT4=
EXTT5=
EXTT6=
EXTT7=
EXTT8=
EXTT9=
EXTT10=
EXTT11=
PLAYORDER=
